<?xml version="1.0" standalone="no"?>
<!DOCTYPE svg PUBLIC "-//W3C//DTD SVG 20010904//EN"
 "http://www.w3.org/TR/2001/REC-SVG-20010904/DTD/svg10.dtd">
<svg version="1.0" xmlns="http://www.w3.org/2000/svg"
 width="4500.000000pt" height="4500.000000pt" viewBox="0 0 4500.000000 4500.000000"
 preserveAspectRatio="xMidYMid meet">

<g transform="translate(0.000000,4500.000000) scale(0.100000,-0.100000)"
fill="#000000" stroke="none">
<path d="M22030 44374 c-2136 -55 -4095 -375 -6065 -988 -3386 -1054 -6546
-2981 -9035 -5512 -3618 -3680 -5800 -8413 -6230 -13514 -55 -653 -74 -1129
-74 -1860 0 -606 8 -866 39 -1380 313 -5084 2391 -9880 5895 -13610 593 -631
1267 -1265 1940 -1826 3580 -2981 7986 -4733 12620 -5019 514 -31 774 -39
1380 -39 606 0 866 8 1380 39 4469 276 8732 1916 12243 4712 3295 2624 5765
6138 7108 10113 614 1816 985 3712 1104 5630 31 514 39 774 39 1380 0 606 -8
866 -39 1380 -276 4469 -1916 8732 -4712 12243 -1733 2176 -3867 4006 -6278
5384 -2924 1671 -6174 2635 -9545 2833 -471 27 -1362 45 -1770 34z m-2550
-5909 c672 -79 1043 -431 1319 -1250 33 -99 194 -598 356 -1110 1129 -3545
2552 -7932 4422 -13635 1806 -5508 2045 -6231 2368 -7145 251 -713 808 -2231
1065 -2905 845 -2219 1710 -3216 3029 -3494 232 -49 405 -67 716 -73 446 -9
809 24 1348 123 311 56 775 165 1145 267 l124 35 9 -22 c14 -34 56 -272 70
-394 16 -156 7 -438 -20 -560 -61 -286 -172 -483 -395 -708 -146 -146 -285
-253 -474 -366 -629 -376 -1318 -578 -2180 -639 -217 -15 -844 -6 -1052 15
-434 45 -824 118 -1205 226 -1470 418 -2582 1279 -3150 2440 -113 231 -147
325 -483 1325 -1018 3024 -1780 5255 -4045 11855 -1333 3882 -1817 5296 -2412
7040 -200 586 -454 1328 -565 1650 -642 1858 -913 2757 -1145 3795 -96 430
-166 646 -295 910 -116 239 -225 397 -385 564 -224 232 -483 392 -811 500
-313 103 -562 138 -1094 151 -525 14 -720 32 -947 91 -205 52 -347 119 -503
236 -68 52 -649 628 -650 645 0 4 78 99 173 210 l173 203 485 -1 c266 -1 961
-7 1544 -13 1264 -15 2198 -2 2805 38 205 14 527 12 660 -4z m1319 -13615
c385 -711 579 -1266 632 -1807 17 -170 6 -533 -20 -697 -52 -323 -88 -429
-500 -1501 -1217 -3161 -3003 -7924 -4266 -11380 -64 -176 -139 -366 -165
-422 -157 -332 -359 -507 -670 -579 -118 -27 -392 -29 -710 -4 -235 18 -328
21 -530 16 -135 -3 -266 -9 -292 -12 l-47 -6 55 139 c30 76 1488 3798 3241
8271 1752 4472 3188 8132 3189 8132 1 0 39 -67 83 -150z"/>
</g>
</svg>
